<?xml version="1.0" encoding="UTF-8"?>
<svg viewBox="0 0 300 300" width="256" height="256" xmlns="http://www.w3.org/2000/svg">
 <path d="m86.557 19.837c-12.03-0.24505-16.555 9.3476-16.46 19.752 0.15935 17.471 10.184 19.665 10.63 22.769 0.58109 15.379-1.7336 26.057-5.2122 40.943-1.6656 6.3821-7.6193 16.49-12.962 17.626-4.2436 0.90221-13.091-6.5605-14.402-12.413-1.8005-8.0362 0.25662-22.023 1.9203-24.141 3.5924-4.5741 14.59-5.3769 16.391-23.112 0.4235-4.1374-1.5115-30.516-21.329-30.382-20.506 0.13861-26.171 15.112-25.513 27.433 0.96991 18.012 11.463 22.256 14.951 28.256 8.3192 20.242 5.441 35.158-6.8582 50.956-0.04464 0.05753-0.09411 0.08164-0.13716 0.13717-9.935 9.064-15.842 28.06-15.842 49.516 0.11241 57.249 90.335 95.234 159.18 94.369 63.634 0 116.38-49.768 116.38-109.73 2e-5 -26.757-8.093-53.45-28.462-69.062-8.5198-27.154-46.745-48.096-66.662-41.972-3.476-4.781-10.999-10.356-23.867-10.356-15.08 0.40495-30.561 9.7541-30.313 18.723-30.283 2.5192-47.053 19.644-49.996 26.953-5.5969-18.822-3.4721-24.728-2.949-29.902 0.31306-3.0968 17.873-7.9978 18.791-27.981 0.45005-9.7202-5.3206-18.136-17.283-18.38zm-0.82298 2.0575c7.8013-7e-5 14.128 8.1549 14.128 18.174s-6.3266 18.106-14.128 18.106-14.128-8.0864-14.128-18.106 6.3266-18.174 14.128-18.174zm-40.258 10.493c10.364-2e-5 18.723 11.167 18.723 24.895s-8.3594 24.895-18.723 24.895-18.791-11.167-18.791-24.895 8.428-24.895 18.791-24.895zm37.994 8.7785c-2.2945 0-4.1149 1.8204-4.1149 4.1149s1.8204 4.1834 4.1149 4.1835 4.1835-1.8891 4.1835-4.1835-1.889-4.115-4.1835-4.1149zm-1.5774 0.82298c0.7266 2e-5 1.3031 0.57646 1.3031 1.3031s-0.57646 1.3031-1.3031 1.3031-1.3031-0.57646-1.3031-1.3031 0.57646-1.3031 1.3031-1.3031zm-27.981 15.225c-3.0976 0-5.6237 2.5261-5.6237 5.6237s2.5261 5.6237 5.6237 5.6237 5.6237-2.5261 5.6237-5.6237-2.5261-5.6237-5.6237-5.6237zm-1.4402 1.2345c1.7591-4e-5 3.1548 1.4642 3.1548 3.2234s-1.3956 3.1548-3.1548 3.1548-3.2234-1.3956-3.2234-3.1548 1.4642-3.2234 3.2234-3.2234zm107.67 0c-0.9396 6.039 2.6954 10.741 6.9268 10.836 3.9415 0.0882 9.3994-1.7726 9.6701-8.8471 4.7045 0.1304 10.506-1.4539 15.225 6.9268 4.5938 8.1571-27.981 17.42-27.981 17.42s41.586-0.16181 32.165-21.603c3.8805-0.10383 31.839 18.936-3.6348 38.543 39.07-1.7301 25.161-18.976 27.433-31.342 0.33165-0.72763 18.365 5.0536 24.141 26.61 8.0063 29.88-64.016 61.477-88.402 58.706 5.2652 5.5423 61.574 12.29 105.27-33.194 21.807 55.108-22.422 150.45-104.72 151.84-76.762 1.2967-110-56.809-110.55-88.677s26.403-50.213 41.286-59.049c8.2323 13.611 22.91 20.656 42.384 24.415-31.515-13.144-43.219-53.991-3.6348-72.903-3.3686 13.51 1.5199 28.431 24.141 29.97-10.356-6.4966-26.51-19.114-13.031-35.8 1.841 2.1581 2.9208 11.444 13.031 11.11-4.3001-5.0446-9.2794-21.858 10.287-24.964zm-106.03 72.491c2.4311-0.00608 4.2604 0.85404 5.1436 2.8804-25.433 31.492-21.241 47.235-16.117 89.225-21.346-8.8101-29.328-33.444-24.621-57.609 3.3773-17.337 25.059-34.47 35.594-34.497z"/>
</svg>
